<svg version="1.1" viewBox="0.0 0.0 564.1627296587926 453.755905511811" fill="none" stroke="none" stroke-linecap="square" stroke-miterlimit="10" xmlns:xlink="http://www.w3.org/1999/xlink" xmlns="http://www.w3.org/2000/svg"><clipPath id="p.0"><path d="m0 0l564.1627 0l0 453.75592l-564.1627 0l0 -453.75592z" clip-rule="nonzero"/></clipPath><g clip-path="url(#p.0)"><path fill="#000000" fill-opacity="0.0" d="m0 0l564.1627 0l0 453.75592l-564.1627 0z" fill-rule="evenodd"/><path fill="#0b5394" d="m201.7546 213.34383l164.39632 0l-82.19815 207.02101z" fill-rule="evenodd"/><path fill="#0b5394" d="m48.015747 32.43832l471.87402 0l0 185.70079l-471.87402 0z" fill-rule="evenodd"/><path stroke="#000000" stroke-width="1.0" stroke-linejoin="round" stroke-linecap="butt" d="m48.015747 32.43832l471.87402 0l0 185.70079l-471.87402 0z" fill-rule="evenodd"/><path fill="#000000" fill-opacity="0.0" d="m64.398994 32.43832l448.9449 0l0 176.12598l-448.9449 0z" fill-rule="evenodd"/><path fill="#ffffff" d="m138.50836 154.67645l0 10.921875l-61.187492 0q-0.140625 -4.109375 1.3125 -7.890625q2.34375 -6.25 7.484375 -12.3125q5.15625 -6.0625 14.875 -14.015625q15.09375 -12.390625 20.390625 -19.609375q5.3125 -7.234375 5.3125 -13.671875q0 -6.765625 -4.828125 -11.40625q-4.828125 -4.640625 -12.59375 -4.640625q-8.21875 0 -13.140625 4.9375q-4.921875 4.921875 -4.984375 13.625l-11.6875 -1.1875q1.203125 -13.078125 9.03125 -19.921875q7.828125 -6.859375 21.03125 -6.859375q13.3125 0 21.078117 7.390625q7.78125 7.390625 7.78125 18.3125q0 5.546875 -2.28125 10.921875q-2.265625 5.375 -7.546875 11.3125q-5.2656174 5.921875 -17.515617 16.28125q-10.234375 8.59375 -13.140625 11.65625q-2.90625 3.0625 -4.796875 6.15625l45.406242 0zm7.7698975 10.921875l24.5 -34.859375l-22.671875 -32.203125l14.203125 0l10.296875 15.71875q2.90625 4.484375 4.671875 7.515625q2.78125 -4.171875 5.109375 -7.390625l11.3125 -15.84375l13.578125 0l-23.1875 31.578125l24.953125 35.484375l-13.953125 0l-13.765625 -20.84375l-3.671875 -5.609375l-17.609375 26.453125l-13.765625 0zm111.89844 0l-11.375 0l0 -72.4375q-4.109375 3.921875 -10.765625 7.84375q-6.65625 3.90625 -11.96875 5.859375l0 -10.984375q9.546875 -4.484375 16.671875 -10.859375q7.140625 -6.375 10.109375 -12.375l7.328125 0l0 92.953125zm88.0824 -69.90625l-11.296875 0.890625q-1.515625 -6.703125 -4.296875 -9.734375q-4.609375 -4.859375 -11.359375 -4.859375q-5.4375 0 -9.546875 3.03125q-5.359375 3.921875 -8.453125 11.4375q-3.09375 7.5 -3.21875 21.40625q4.09375 -6.25 10.03125 -9.28125q5.9375 -3.03125 12.4375 -3.03125q11.375 0 19.359375 8.375q7.984375 8.359375 7.984375 21.609375q0 8.71875 -3.765625 16.203125q-3.75 7.484375 -10.3125 11.46875q-6.5625 3.96875 -14.90625 3.96875q-14.203125 0 -23.171875 -10.453125q-8.96875 -10.453125 -8.96875 -34.4375q0 -26.84375 9.921875 -39.03125q8.640625 -10.609375 23.296875 -10.609375q10.921875 0 17.890625 6.125q6.984375 6.125 8.375 16.921875zm-46.40625 39.90625q0 5.875 2.484375 11.25q2.5 5.359375 6.984375 8.171875q4.484375 2.8125 9.40625 2.8125q7.203125 0 12.375 -5.8125q5.1875 -5.8125 5.1875 -15.78125q0 -9.609375 -5.125 -15.125q-5.109375 -5.53125 -12.875 -5.53125q-7.703125 0 -13.078125 5.53125q-5.359375 5.515625 -5.359375 14.484375zm93.638916 3.734375l11.0625 -1.515625q0.4375 10.609375 3.96875 14.53125q3.546875 3.90625 9.796875 3.90625q4.609375 0 7.953125 -2.109375q3.34375 -2.125 4.609375 -5.75q1.265625 -3.640625 1.265625 -11.59375l0 -63.78125l12.25 0l0 63.09375q0 11.609375 -2.8125 18.0q-2.8125 6.375 -8.90625 9.71875q-6.09375 3.34375 -14.296875 3.34375q-12.1875 0 -18.671875 -7.0q-6.46875 -7.015625 -6.21875 -20.84375z" fill-rule="nonzero"/></g></svg>