<svg version="1.1" viewBox="0.0 0.0 564.1627296587926 453.755905511811" fill="none" stroke="none" stroke-linecap="square" stroke-miterlimit="10" xmlns:xlink="http://www.w3.org/1999/xlink" xmlns="http://www.w3.org/2000/svg"><clipPath id="p.0"><path d="m0 0l564.1627 0l0 453.75592l-564.1627 0l0 -453.75592z" clip-rule="nonzero"/></clipPath><g clip-path="url(#p.0)"><path fill="#000000" fill-opacity="0.0" d="m0 0l564.1627 0l0 453.75592l-564.1627 0z" fill-rule="evenodd"/><path fill="#38761d" d="m201.7546 213.34383l164.39632 0l-82.19815 207.02101z" fill-rule="evenodd"/><path fill="#38761d" d="m48.015747 32.43832l471.87402 0l0 185.70079l-471.87402 0z" fill-rule="evenodd"/><path stroke="#000000" stroke-width="1.0" stroke-linejoin="round" stroke-linecap="butt" d="m48.015747 32.43832l471.87402 0l0 185.70079l-471.87402 0z" fill-rule="evenodd"/><path fill="#000000" fill-opacity="0.0" d="m64.398994 32.43832l448.9449 0l0 176.12598l-448.9449 0z" fill-rule="evenodd"/><path fill="#ffffff" d="m78.836494 141.16083l11.359375 -1.515625q1.953125 9.65625 6.65625 13.921875q4.71875 4.265625 11.46875 4.265625q8.015625 0 13.53125 -5.546875q5.53125 -5.5625 5.53125 -13.78125q0 -7.828125 -5.109375 -12.90625q-5.109375 -5.09375 -13.0 -5.09375q-3.234375 0 -8.03125 1.265625l1.265625 -9.96875q1.140625 0.125 1.828125 0.125q7.265625 0 13.078125 -3.78125q5.8125 -3.796875 5.8125 -11.6875q0 -6.265625 -4.234375 -10.359375q-4.234375 -4.109375 -10.921875 -4.109375q-6.640625 0 -11.0625 4.171875q-4.40625 4.171875 -5.671875 12.5l-11.375 -2.015625q2.09375 -11.4375 9.46875 -17.71875q7.390625 -6.28125 18.390625 -6.28125q7.578125 0 13.953125 3.25q6.3749924 3.25 9.749992 8.875q3.375 5.625 3.375 11.9375q0 6.0 -3.21875 10.921875q-3.21875 4.921875 -9.531242 7.828125q8.203117 1.890625 12.749992 7.859375q4.546875 5.96875 4.546875 14.9375q0 12.125 -8.84375 20.5625q-8.828117 8.421875 -22.343742 8.421875q-12.1875 0 -20.25 -7.25q-8.046875 -7.265625 -9.171875 -18.828125zm67.441765 24.4375l24.5 -34.859375l-22.671875 -32.203125l14.203125 0l10.296875 15.71875q2.90625 4.484375 4.671875 7.515625q2.78125 -4.171875 5.109375 -7.390625l11.3125 -15.84375l13.578125 0l-23.1875 31.578125l24.953125 35.484375l-13.953125 0l-13.765625 -20.84375l-3.671875 -5.609375l-17.609375 26.453125l-13.765625 0zm111.89844 0l-11.375 0l0 -72.4375q-4.109375 3.921875 -10.765625 7.84375q-6.65625 3.90625 -11.96875 5.859375l0 -10.984375q9.546875 -4.484375 16.671875 -10.859375q7.140625 -6.375 10.109375 -12.375l7.328125 0l0 92.953125zm88.84802 -10.921875l0 10.921875l-61.1875 0q-0.140625 -4.109375 1.3125 -7.890625q2.34375 -6.25 7.484375 -12.3125q5.15625 -6.0625 14.875 -14.015625q15.09375 -12.390625 20.390625 -19.609375q5.3125 -7.234375 5.3125 -13.671875q0 -6.765625 -4.828125 -11.40625q-4.828125 -4.640625 -12.59375 -4.640625q-8.21875 0 -13.140625 4.9375q-4.921875 4.921875 -4.984375 13.625l-11.6875 -1.1875q1.203125 -13.078125 9.03125 -19.921875q7.828125 -6.859375 21.03125 -6.859375q13.3125 0 21.078125 7.390625q7.78125 7.390625 7.78125 18.3125q0 5.546875 -2.28125 10.921875q-2.265625 5.375 -7.546875 11.3125q-5.265625 5.921875 -17.515625 16.28125q-10.234375 8.59375 -13.140625 11.65625q-2.90625 3.0625 -4.796875 6.15625l45.40625 0zm52.21704 10.921875l0 -92.578125l34.734375 0q10.609375 0 17.015625 2.8125q6.40625 2.8125 10.03125 8.65625q3.640625 5.84375 3.640625 12.21875q0 5.9375 -3.21875 11.1875q-3.21875 5.234375 -9.71875 8.453125q8.390625 2.453125 12.90625 8.390625q4.515625 5.9375 4.515625 14.015625q0 6.515625 -2.75 12.109375q-2.734375 5.578125 -6.78125 8.609375q-4.046875 3.03125 -10.140625 4.578125q-6.09375 1.546875 -14.9375 1.546875l-35.296875 0zm12.25 -53.671875l20.015625 0q8.15625 0 11.6875 -1.078125q4.671875 -1.390625 7.03125 -4.609375q2.375 -3.21875 2.375 -8.078125q0 -4.609375 -2.21875 -8.109375q-2.203125 -3.515625 -6.3125 -4.8125q-4.09375 -1.296875 -14.078125 -1.296875l-18.5 0l0 27.984375zm0 42.75l23.046875 0q5.9375 0 8.34375 -0.4375q4.234375 -0.765625 7.0625 -2.53125q2.84375 -1.765625 4.671875 -5.140625q1.84375 -3.390625 1.84375 -7.8125q0 -5.171875 -2.65625 -8.984375q-2.65625 -3.828125 -7.359375 -5.375q-4.703125 -1.546875 -13.546875 -1.546875l-21.40625 0l0 31.828125z" fill-rule="nonzero"/></g></svg>