<svg version="1.1" viewBox="0.0 0.0 564.1627296587926 453.755905511811" fill="none" stroke="none" stroke-linecap="square" stroke-miterlimit="10" xmlns:xlink="http://www.w3.org/1999/xlink" xmlns="http://www.w3.org/2000/svg"><clipPath id="p.0"><path d="m0 0l564.1627 0l0 453.75592l-564.1627 0l0 -453.75592z" clip-rule="nonzero"/></clipPath><g clip-path="url(#p.0)"><path fill="#000000" fill-opacity="0.0" d="m0 0l564.1627 0l0 453.75592l-564.1627 0z" fill-rule="evenodd"/><path fill="#ffff00" d="m201.7546 213.34383l164.39632 0l-82.19815 207.02101z" fill-rule="evenodd"/><path fill="#ffff00" d="m48.015747 32.43832l471.87402 0l0 185.70079l-471.87402 0z" fill-rule="evenodd"/><path stroke="#000000" stroke-width="1.0" stroke-linejoin="round" stroke-linecap="butt" d="m48.015747 32.43832l471.87402 0l0 185.70079l-471.87402 0z" fill-rule="evenodd"/><path fill="#000000" fill-opacity="0.0" d="m64.398994 32.43832l448.9449 0l0 176.12598l-448.9449 0z" fill-rule="evenodd"/><path fill="#000000" d="m78.836494 141.16083l11.359375 -1.515625q1.953125 9.65625 6.65625 13.921875q4.71875 4.265625 11.46875 4.265625q8.015625 0 13.53125 -5.546875q5.53125 -5.5625 5.53125 -13.78125q0 -7.828125 -5.109375 -12.90625q-5.109375 -5.09375 -13.0 -5.09375q-3.234375 0 -8.03125 1.265625l1.265625 -9.96875q1.140625 0.125 1.828125 0.125q7.265625 0 13.078125 -3.78125q5.8125 -3.796875 5.8125 -11.6875q0 -6.265625 -4.234375 -10.359375q-4.234375 -4.109375 -10.921875 -4.109375q-6.640625 0 -11.0625 4.171875q-4.40625 4.171875 -5.671875 12.5l-11.375 -2.015625q2.09375 -11.4375 9.46875 -17.71875q7.390625 -6.28125 18.390625 -6.28125q7.578125 0 13.953125 3.25q6.3749924 3.25 9.749992 8.875q3.375 5.625 3.375 11.9375q0 6.0 -3.21875 10.921875q-3.21875 4.921875 -9.531242 7.828125q8.203117 1.890625 12.749992 7.859375q4.546875 5.96875 4.546875 14.9375q0 12.125 -8.84375 20.5625q-8.828117 8.421875 -22.343742 8.421875q-12.1875 0 -20.25 -7.25q-8.046875 -7.265625 -9.171875 -18.828125zm67.441765 24.4375l24.5 -34.859375l-22.671875 -32.203125l14.203125 0l10.296875 15.71875q2.90625 4.484375 4.671875 7.515625q2.78125 -4.171875 5.109375 -7.390625l11.3125 -15.84375l13.578125 0l-23.1875 31.578125l24.953125 35.484375l-13.953125 0l-13.765625 -20.84375l-3.671875 -5.609375l-17.609375 26.453125l-13.765625 0zm111.89844 0l-11.375 0l0 -72.4375q-4.109375 3.921875 -10.765625 7.84375q-6.65625 3.90625 -11.96875 5.859375l0 -10.984375q9.546875 -4.484375 16.671875 -10.859375q7.140625 -6.375 10.109375 -12.375l7.328125 0l0 92.953125zm46.598022 -50.203125q-7.078125 -2.59375 -10.484375 -7.390625q-3.40625 -4.796875 -3.40625 -11.484375q0 -10.109375 7.25 -16.984375q7.265625 -6.890625 19.328125 -6.890625q12.125 0 19.515625 7.046875q7.390625 7.03125 7.390625 17.140625q0 6.4375 -3.375 11.203125q-3.375 4.765625 -10.265625 7.359375q8.53125 2.78125 12.984375 8.96875q4.453125 6.1875 4.453125 14.78125q0 11.859375 -8.40625 19.953125q-8.40625 8.078125 -22.109375 8.078125q-13.703125 0 -22.109375 -8.109375q-8.390625 -8.125 -8.390625 -20.25q0 -9.03125 4.578125 -15.125q4.578125 -6.09375 13.046875 -8.296875zm-2.265625 -19.265625q0 6.578125 4.21875 10.75q4.234375 4.15625 11.0 4.15625q6.5625 0 10.75 -4.125q4.203125 -4.140625 4.203125 -10.140625q0 -6.25 -4.328125 -10.515625q-4.3125 -4.265625 -10.765625 -4.265625q-6.5 0 -10.796875 4.171875q-4.28125 4.171875 -4.28125 9.96875zm-3.671875 42.75q0 4.875 2.296875 9.421875q2.3125 4.546875 6.859375 7.046875q4.546875 2.484375 9.796875 2.484375q8.140625 0 13.4375 -5.234375q5.3125 -5.25 5.3125 -13.328125q0 -8.21875 -5.46875 -13.578125q-5.453125 -5.375 -13.671875 -5.375q-8.015625 0 -13.296875 5.3125q-5.265625 5.296875 -5.265625 13.25zm100.52954 26.71875l0 -92.578125l18.4375 0l21.921875 65.546875q3.03125 9.15625 4.421875 13.703125q1.578125 -5.046875 4.921875 -14.84375l22.171875 -64.40625l16.46875 0l0 92.578125l-11.796875 0l0 -77.484375l-26.90625 77.484375l-11.046875 0l-26.78125 -78.8125l0 78.8125l-11.8125 0z" fill-rule="nonzero"/></g></svg>