<svg version="1.1" viewBox="0.0 0.0 564.1627296587926 453.755905511811" fill="none" stroke="none" stroke-linecap="square" stroke-miterlimit="10" xmlns:xlink="http://www.w3.org/1999/xlink" xmlns="http://www.w3.org/2000/svg"><clipPath id="p.0"><path d="m0 0l564.1627 0l0 453.75592l-564.1627 0l0 -453.75592z" clip-rule="nonzero"/></clipPath><g clip-path="url(#p.0)"><path fill="#000000" fill-opacity="0.0" d="m0 0l564.1627 0l0 453.75592l-564.1627 0z" fill-rule="evenodd"/><path fill="#cc0000" d="m201.7546 213.34383l164.39632 0l-82.19815 207.02101z" fill-rule="evenodd"/><path fill="#cc0000" d="m48.015747 32.43832l471.87402 0l0 185.70079l-471.87402 0z" fill-rule="evenodd"/><path stroke="#000000" stroke-width="1.0" stroke-linejoin="round" stroke-linecap="butt" d="m48.015747 32.43832l471.87402 0l0 185.70079l-471.87402 0z" fill-rule="evenodd"/><path fill="#000000" fill-opacity="0.0" d="m64.398994 32.43832l448.9449 0l0 176.12598l-448.9449 0z" fill-rule="evenodd"/><path fill="#ffffff" d="m114.768 141.16083l11.359375 -1.515625q1.9531174 9.65625 6.6562424 13.921875q4.71875 4.265625 11.46875 4.265625q8.015625 0 13.53125 -5.546875q5.53125 -5.5625 5.53125 -13.78125q0 -7.828125 -5.109375 -12.90625q-5.109375 -5.09375 -13.0 -5.09375q-3.234375 0 -8.03125 1.265625l1.265625 -9.96875q1.140625 0.125 1.828125 0.125q7.265625 0 13.078125 -3.78125q5.8125 -3.796875 5.8125 -11.6875q0 -6.265625 -4.234375 -10.359375q-4.234375 -4.109375 -10.921875 -4.109375q-6.640625 0 -11.0625 4.171875q-4.40625 4.171875 -5.6718674 12.5l-11.375 -2.015625q2.09375 -11.4375 9.46875 -17.71875q7.3906174 -6.28125 18.390617 -6.28125q7.578125 0 13.953125 3.25q6.375 3.25 9.75 8.875q3.375 5.625 3.375 11.9375q0 6.0 -3.21875 10.921875q-3.21875 4.921875 -9.53125 7.828125q8.203125 1.890625 12.75 7.859375q4.546875 5.96875 4.546875 14.9375q0 12.125 -8.84375 20.5625q-8.828125 8.421875 -22.34375 8.421875q-12.1875 0 -20.249992 -7.25q-8.046875 -7.265625 -9.171875 -18.828125zm67.441765 24.4375l24.5 -34.859375l-22.671875 -32.203125l14.203125 0l10.296875 15.71875q2.90625 4.484375 4.671875 7.515625q2.78125 -4.171875 5.109375 -7.390625l11.3125 -15.84375l13.578125 0l-23.1875 31.578125l24.953125 35.484375l-13.953125 0l-13.765625 -20.84375l-3.671875 -5.609375l-17.609375 26.453125l-13.765625 0zm70.78906 -21.40625l10.92189 -1.015625q1.390625 7.703125 5.296875 11.1875q3.921875 3.46875 10.046875 3.46875q5.234375 0 9.1875 -2.390625q3.953125 -2.40625 6.46875 -6.421875q2.53125 -4.015625 4.234375 -10.828125q1.703125 -6.8125 1.703125 -13.890625q0 -0.765625 -0.0625 -2.28125q-3.40625 5.4375 -9.3125 8.8125q-5.90625 3.375 -12.78125 3.375q-11.5 0 -19.453125 -8.328125q-7.9531403 -8.34375 -7.9531403 -21.984375q0 -14.078125 8.29689 -22.65625q8.296875 -8.59375 20.8125 -8.59375q9.03125 0 16.5 4.859375q7.484375 4.859375 11.375 13.859375q3.890625 9.0 3.890625 26.046875q0 17.75 -3.859375 28.265625q-3.859375 10.515625 -11.46875 16.015625q-7.609375 5.484375 -17.828125 5.484375q-10.859375 0 -17.75 -6.03125q-6.8750153 -6.03125 -8.26564 -16.953125zm46.531265 -40.859375q0 -9.78125 -5.21875 -15.53125q-5.203125 -5.75 -12.515625 -5.75q-7.578125 0 -13.203125 6.1875q-5.625 6.1875 -5.625 16.046875q0 8.84375 5.328125 14.375q5.34375 5.515625 13.171875 5.515625q7.90625 0 12.984375 -5.515625q5.078125 -5.53125 5.078125 -15.328125zm57.96701 36.0l11.0625 -1.515625q0.4375 10.609375 3.96875 14.53125q3.546875 3.90625 9.796875 3.90625q4.609375 0 7.953125 -2.109375q3.34375 -2.125 4.609375 -5.75q1.265625 -3.640625 1.265625 -11.59375l0 -63.78125l12.25 0l0 63.09375q0 11.609375 -2.8125 18.0q-2.8125 6.375 -8.90625 9.71875q-6.09375 3.34375 -14.296875 3.34375q-12.1875 0 -18.671875 -7.0q-6.46875 -7.015625 -6.21875 -20.84375z" fill-rule="nonzero"/></g></svg>