<svg version="1.1" viewBox="0.0 0.0 564.1627296587926 453.755905511811" fill="none" stroke="none" stroke-linecap="square" stroke-miterlimit="10" xmlns:xlink="http://www.w3.org/1999/xlink" xmlns="http://www.w3.org/2000/svg"><clipPath id="p.0"><path d="m0 0l564.1627 0l0 453.75592l-564.1627 0l0 -453.75592z" clip-rule="nonzero"/></clipPath><g clip-path="url(#p.0)"><path fill="#000000" fill-opacity="0.0" d="m0 0l564.1627 0l0 453.75592l-564.1627 0z" fill-rule="evenodd"/><path fill="#741b47" d="m201.7546 213.34383l164.39632 0l-82.19815 207.02101z" fill-rule="evenodd"/><path fill="#741b47" d="m48.015747 32.43832l471.87402 0l0 185.70079l-471.87402 0z" fill-rule="evenodd"/><path stroke="#000000" stroke-width="1.0" stroke-linejoin="round" stroke-linecap="butt" d="m48.015747 32.43832l471.87402 0l0 185.70079l-471.87402 0z" fill-rule="evenodd"/><path fill="#000000" fill-opacity="0.0" d="m64.398994 32.43832l448.9449 0l0 176.12598l-448.9449 0z" fill-rule="evenodd"/><path fill="#ffffff" d="m115.19587 165.59833l0 -22.171875l-40.15625 0l0 -10.40625l42.25 -60.0l9.28125 0l0 60.0l12.499992 0l0 10.40625l-12.499992 0l0 22.171875l-11.375 0zm0 -32.578125l0 -41.75l-28.984375 41.75l28.984375 0zm31.08239 32.578125l24.5 -34.859375l-22.671875 -32.203125l14.203125 0l10.296875 15.71875q2.90625 4.484375 4.671875 7.515625q2.78125 -4.171875 5.109375 -7.390625l11.3125 -15.84375l13.578125 0l-23.1875 31.578125l24.953125 35.484375l-13.953125 0l-13.765625 -20.84375l-3.671875 -5.609375l-17.609375 26.453125l-13.765625 0zm111.89844 0l-11.375 0l0 -72.4375q-4.109375 3.921875 -10.765625 7.84375q-6.65625 3.90625 -11.96875 5.859375l0 -10.984375q9.546875 -4.484375 16.671875 -10.859375q7.140625 -6.375 10.109375 -12.375l7.328125 0l0 92.953125zm29.113647 -24.25l11.921875 -1.015625q1.328125 8.71875 6.15625 13.109375q4.84375 4.390625 11.65625 4.390625q8.203125 0 13.890625 -6.1875q5.6875 -6.1875 5.6875 -16.421875q0 -9.71875 -5.46875 -15.34375q-5.453125 -5.625 -14.296875 -5.625q-5.5 0 -9.921875 2.5q-4.40625 2.5 -6.9375 6.46875l-10.671875 -1.390625l8.96875 -47.546875l46.03125 0l0 10.859375l-36.9375 0l-5.0 24.875q8.34375 -5.796875 17.5 -5.796875q12.125 0 20.453125 8.40625q8.34375 8.390625 8.34375 21.578125q0 12.578125 -7.328125 21.734375q-8.90625 11.234375 -24.3125 11.234375q-12.625 0 -20.625 -7.0625q-7.984375 -7.078125 -9.109375 -18.765625zm111.951416 24.25l0 -92.578125l34.734375 0q10.609375 0 17.015625 2.8125q6.40625 2.8125 10.03125 8.65625q3.640625 5.84375 3.640625 12.21875q0 5.9375 -3.21875 11.1875q-3.21875 5.234375 -9.71875 8.453125q8.390625 2.453125 12.90625 8.390625q4.515625 5.9375 4.515625 14.015625q0 6.515625 -2.75 12.109375q-2.734375 5.578125 -6.78125 8.609375q-4.046875 3.03125 -10.140625 4.578125q-6.09375 1.546875 -14.9375 1.546875l-35.296875 0zm12.25 -53.671875l20.015625 0q8.15625 0 11.6875 -1.078125q4.671875 -1.390625 7.03125 -4.609375q2.375 -3.21875 2.375 -8.078125q0 -4.609375 -2.21875 -8.109375q-2.203125 -3.515625 -6.3125 -4.8125q-4.09375 -1.296875 -14.078125 -1.296875l-18.5 0l0 27.984375zm0 42.75l23.046875 0q5.9375 0 8.34375 -0.4375q4.234375 -0.765625 7.0625 -2.53125q2.84375 -1.765625 4.671875 -5.140625q1.84375 -3.390625 1.84375 -7.8125q0 -5.171875 -2.65625 -8.984375q-2.65625 -3.828125 -7.359375 -5.375q-4.703125 -1.546875 -13.546875 -1.546875l-21.40625 0l0 31.828125z" fill-rule="nonzero"/></g></svg>