<svg version="1.1" viewBox="0.0 0.0 564.1627296587926 453.755905511811" fill="none" stroke="none" stroke-linecap="square" stroke-miterlimit="10" xmlns:xlink="http://www.w3.org/1999/xlink" xmlns="http://www.w3.org/2000/svg"><clipPath id="p.0"><path d="m0 0l564.1627 0l0 453.75592l-564.1627 0l0 -453.75592z" clip-rule="nonzero"/></clipPath><g clip-path="url(#p.0)"><path fill="#000000" fill-opacity="0.0" d="m0 0l564.1627 0l0 453.75592l-564.1627 0z" fill-rule="evenodd"/><path fill="#741b47" d="m201.7546 213.34383l164.39632 0l-82.19815 207.02101z" fill-rule="evenodd"/><path fill="#741b47" d="m48.015747 32.43832l471.87402 0l0 185.70079l-471.87402 0z" fill-rule="evenodd"/><path stroke="#000000" stroke-width="1.0" stroke-linejoin="round" stroke-linecap="butt" d="m48.015747 32.43832l471.87402 0l0 185.70079l-471.87402 0z" fill-rule="evenodd"/><path fill="#000000" fill-opacity="0.0" d="m64.398994 32.43832l448.9449 0l0 176.12598l-448.9449 0z" fill-rule="evenodd"/><path fill="#ffffff" d="m115.19587 165.59833l0 -22.171875l-40.15625 0l0 -10.40625l42.25 -60.0l9.28125 0l0 60.0l12.499992 0l0 10.40625l-12.499992 0l0 22.171875l-11.375 0zm0 -32.578125l0 -41.75l-28.984375 41.75l28.984375 0zm31.08239 32.578125l24.5 -34.859375l-22.671875 -32.203125l14.203125 0l10.296875 15.71875q2.90625 4.484375 4.671875 7.515625q2.78125 -4.171875 5.109375 -7.390625l11.3125 -15.84375l13.578125 0l-23.1875 31.578125l24.953125 35.484375l-13.953125 0l-13.765625 -20.84375l-3.671875 -5.609375l-17.609375 26.453125l-13.765625 0zm111.89844 0l-11.375 0l0 -72.4375q-4.109375 3.921875 -10.765625 7.84375q-6.65625 3.90625 -11.96875 5.859375l0 -10.984375q9.546875 -4.484375 16.671875 -10.859375q7.140625 -6.375 10.109375 -12.375l7.328125 0l0 92.953125zm29.113647 -24.25l11.921875 -1.015625q1.328125 8.71875 6.15625 13.109375q4.84375 4.390625 11.65625 4.390625q8.203125 0 13.890625 -6.1875q5.6875 -6.1875 5.6875 -16.421875q0 -9.71875 -5.46875 -15.34375q-5.453125 -5.625 -14.296875 -5.625q-5.5 0 -9.921875 2.5q-4.40625 2.5 -6.9375 6.46875l-10.671875 -1.390625l8.96875 -47.546875l46.03125 0l0 10.859375l-36.9375 0l-5.0 24.875q8.34375 -5.796875 17.5 -5.796875q12.125 0 20.453125 8.40625q8.34375 8.390625 8.34375 21.578125q0 12.578125 -7.328125 21.734375q-8.90625 11.234375 -24.3125 11.234375q-12.625 0 -20.625 -7.0625q-7.984375 -7.078125 -9.109375 -18.765625zm112.076416 24.25l0 -92.578125l18.4375 0l21.921875 65.546875q3.03125 9.15625 4.421875 13.703125q1.578125 -5.046875 4.921875 -14.84375l22.171875 -64.40625l16.46875 0l0 92.578125l-11.796875 0l0 -77.484375l-26.90625 77.484375l-11.046875 0l-26.78125 -78.8125l0 78.8125l-11.8125 0z" fill-rule="nonzero"/></g></svg>